<mxfile host="app.diagrams.net" agent="Mozilla/5.0 (Windows NT 10.0; Win64; x64) AppleWebKit/537.36 (KHTML, like Gecko) Chrome/127.0.0.0 Safari/537.36" version="24.7.7">
  <diagram name="PÃ¡gina-1" id="_GdkLMyKTcQ6SKaFYViN">
    <mxGraphModel dx="880" dy="408" grid="1" gridSize="10" guides="1" tooltips="1" connect="1" arrows="1" fold="1" page="1" pageScale="1" pageWidth="827" pageHeight="1169" math="0" shadow="0">
      <root>
        <mxCell id="0" />
        <mxCell id="1" parent="0" />
        <mxCell id="INjmQs8cM6iaKk6N4Van-1" value="aluno" style="whiteSpace=wrap;html=1;align=center;" vertex="1" parent="1">
          <mxGeometry x="140" y="170" width="100" height="40" as="geometry" />
        </mxCell>
        <mxCell id="INjmQs8cM6iaKk6N4Van-3" value="realizar" style="shape=rhombus;perimeter=rhombusPerimeter;whiteSpace=wrap;html=1;align=center;" vertex="1" parent="1">
          <mxGeometry x="270" y="170" width="80" height="40" as="geometry" />
        </mxCell>
        <mxCell id="INjmQs8cM6iaKk6N4Van-4" value="trabalho" style="whiteSpace=wrap;html=1;align=center;" vertex="1" parent="1">
          <mxGeometry x="380" y="170" width="100" height="40" as="geometry" />
        </mxCell>
        <mxCell id="INjmQs8cM6iaKk6N4Van-5" value="orientar" style="shape=rhombus;perimeter=rhombusPerimeter;whiteSpace=wrap;html=1;align=center;" vertex="1" parent="1">
          <mxGeometry x="510" y="170" width="80" height="40" as="geometry" />
        </mxCell>
        <mxCell id="INjmQs8cM6iaKk6N4Van-6" value="professor" style="whiteSpace=wrap;html=1;align=center;" vertex="1" parent="1">
          <mxGeometry x="620" y="170" width="100" height="40" as="geometry" />
        </mxCell>
        <mxCell id="INjmQs8cM6iaKk6N4Van-7" value="" style="endArrow=none;html=1;rounded=0;" edge="1" parent="1">
          <mxGeometry relative="1" as="geometry">
            <mxPoint x="240" y="189.5" as="sourcePoint" />
            <mxPoint x="270" y="190" as="targetPoint" />
          </mxGeometry>
        </mxCell>
        <mxCell id="INjmQs8cM6iaKk6N4Van-8" value="" style="endArrow=none;html=1;rounded=0;" edge="1" parent="1">
          <mxGeometry relative="1" as="geometry">
            <mxPoint x="350" y="189.5" as="sourcePoint" />
            <mxPoint x="380" y="190" as="targetPoint" />
          </mxGeometry>
        </mxCell>
        <mxCell id="INjmQs8cM6iaKk6N4Van-9" value="" style="endArrow=none;html=1;rounded=0;entryX=0;entryY=0.5;entryDx=0;entryDy=0;" edge="1" parent="1" target="INjmQs8cM6iaKk6N4Van-5">
          <mxGeometry relative="1" as="geometry">
            <mxPoint x="480" y="189.5" as="sourcePoint" />
            <mxPoint x="640" y="189.5" as="targetPoint" />
          </mxGeometry>
        </mxCell>
        <mxCell id="INjmQs8cM6iaKk6N4Van-10" value="" style="endArrow=none;html=1;rounded=0;entryX=0;entryY=0.5;entryDx=0;entryDy=0;" edge="1" parent="1" target="INjmQs8cM6iaKk6N4Van-6">
          <mxGeometry relative="1" as="geometry">
            <mxPoint x="590" y="189.5" as="sourcePoint" />
            <mxPoint x="750" y="189.5" as="targetPoint" />
          </mxGeometry>
        </mxCell>
      </root>
    </mxGraphModel>
  </diagram>
</mxfile>
